<svg width="28.5" height="28.5" viewBox="0 0 30 30" fill="none" xmlns="http://www.w3.org/2000/svg">
<path fill-rule="evenodd" clip-rule="evenodd" d="M14.999 20.251C20.384 20.251 24.7495 15.8856 24.7495 10.5005C24.7495 5.11545 20.384 0.75 14.999 0.75C9.6139 0.75 5.24845 5.11545 5.24845 10.5005C5.24845 15.8856 9.6139 20.251 14.999 20.251ZM14.999 18.751C10.4423 18.751 6.74845 15.0571 6.74845 10.5005C6.74845 5.94387 10.4423 2.25 14.999 2.25C19.5556 2.25 23.2495 5.94387 23.2495 10.5005C23.2495 15.0571 19.5556 18.751 14.999 18.751Z" fill="#3483FA"/>
<path d="M2.25195 26.9445V29.2157H0.751953V26.9445C0.751953 24.4869 2.74429 22.4946 5.20195 22.4946H24.799C27.2566 22.4946 29.249 24.4869 29.249 26.9445V29.25H27.749V26.9445C27.749 25.3153 26.4282 23.9946 24.799 23.9946H5.20195C3.57271 23.9946 2.25195 25.3153 2.25195 26.9445Z" fill="#3483FA"/>
</svg>
